<svg width="38" height="38" viewBox="0 0 38 38" fill="none" xmlns="http://www.w3.org/2000/svg">
<rect x="0.0166016" y="0.00012207" width="37.884" height="37.884" fill="#C4C4C4" fill-opacity="0.01"/>
<path d="M14.8789 18.3655C15.0667 18.4907 19.6993 22.4759 19.4175 26.4205C19.5114 25.8257 20.6706 21.59 24.2082 19.9934" stroke="#888783" stroke-width="0.82148"/>
<path d="M21.3958 21.6557L21.3958 21.6557L21.3943 21.6533C20.7721 20.6634 20.727 19.391 20.9911 18.7023C21.6439 17.0461 24.4816 15.082 28.8966 16.594L28.8999 16.5952C28.6848 18.4084 28.0092 20.0132 27.0963 21.158C26.175 22.3134 25.0455 22.9639 23.9268 22.9639H23.9264H23.926H23.9257H23.9253H23.9249H23.9245H23.9242H23.9238H23.9234H23.9231H23.9227H23.9223H23.922H23.9216H23.9212H23.9209H23.9205H23.9201H23.9198H23.9194H23.919H23.9187H23.9183H23.9179H23.9176H23.9172H23.9168H23.9165H23.9161H23.9157H23.9154H23.915H23.9146H23.9143H23.9139H23.9135H23.9132H23.9128H23.9124H23.9121H23.9117H23.9113H23.911H23.9106H23.9102H23.9099H23.9095H23.9091H23.9088H23.9084H23.908H23.9077H23.9073H23.9069H23.9066H23.9062H23.9058H23.9055H23.9051H23.9047H23.9044H23.904H23.9036H23.9033H23.9029H23.9025H23.9022H23.9018H23.9014H23.9011H23.9007H23.9003H23.9H23.8996H23.8992H23.8989H23.8985H23.8981H23.8978H23.8974H23.897H23.8967H23.8963H23.8959H23.8956H23.8952H23.8948H23.8945H23.8941H23.8937H23.8934H23.893H23.8926H23.8923H23.8919H23.8915H23.8912H23.8908H23.8904H23.8901H23.8897H23.8893H23.889H23.8886H23.8882H23.8879H23.8875H23.8871H23.8868H23.8864H23.886H23.8857H23.8853H23.8849H23.8846H23.8842H23.8838H23.8835H23.8831H23.8827H23.8824H23.882H23.8816H23.8813H23.8809H23.8805H23.8802H23.8798H23.8794H23.8791H23.8787H23.8783H23.878H23.8776H23.8772H23.8769H23.8765H23.8761H23.8758H23.8754H23.875H23.8747H23.8743H23.8739H23.8736H23.8732H23.8728H23.8725H23.8721H23.8717H23.8714H23.871H23.8706H23.8703H23.8699H23.8695H23.8692H23.8688H23.8684H23.8681H23.8677H23.8673H23.867H23.8666H23.8662H23.8659H23.8655H23.8651H23.8647H23.8644H23.864H23.8636H23.8633H23.8629H23.8625H23.8622H23.8618H23.8614H23.8611H23.8607H23.8603H23.86H23.8596H23.8592H23.8589H23.8585H23.8581H23.8578H23.8574H23.857H23.8567H23.8563H23.8559H23.8556H23.8552H23.8548H23.8545H23.8541H23.8537H23.8534H23.853H23.8526H23.8523H23.8519H23.8515H23.8512H23.8508H23.8504H23.8501H23.8497H23.8493H23.849H23.8486H23.8482H23.8479H23.8475H23.8471H23.8468H23.8464H23.846H23.8457H23.8453H23.8449H23.8446H23.8442H23.8438H23.8435H23.8431H23.8427H23.8424H23.842H23.8416H23.8413H23.8409H23.8405H23.8402H23.8398H23.8394H23.8391H23.8387H23.8383H23.838H23.8376H23.8372H23.8369H23.8365H23.8361H23.8358H23.8354H23.835H23.8347H23.8343H23.8339H23.8336H23.8332H23.8328H23.8325H23.8321H23.8317H23.8314H23.831H23.8306H23.8303H23.8299H23.8295H23.8292H23.8288H23.8284H23.8281H23.8277H23.8273H23.827H23.8266H23.8262H23.8259H23.8255H23.8251H23.8248H23.8244H23.824H23.8237H23.8233H23.8229H23.8226H23.8222H23.8218H23.8215H23.8211H23.8207H23.8204H23.82H23.8196H23.8193H23.8189H23.8185H23.8182H23.8178H23.8174H23.8171H23.8167H23.8163H23.816H23.8156H23.8152H23.8149H23.8145H23.8141H23.8138H23.8134H23.813H23.8127H23.8123H23.8119H23.8116H23.8112H23.8108H23.8105H23.8101H23.8097H23.8094H23.809H23.8086H23.8083H23.8079H23.8075H23.8072H23.8068H23.8064H23.8061H23.8057H23.8053H23.8049H23.8046H23.8042H23.8038H23.8035H23.8031H23.8027H23.8024H23.802H23.8016H23.8013H23.8009H23.8005H23.8002H23.7998H23.7994H23.7991H23.7987H23.7983H23.798H23.7976H23.7972H23.7969H23.7965H23.7961H23.7958H23.7954H23.795H23.7947H23.7943H23.7939H23.7936H23.7932H23.7928H23.7925H23.7921H23.7917H23.7914H23.791H23.7906H23.7903H23.7899H23.7895H23.7892H23.7888H23.7884H23.7881H23.7877H23.7873H23.787H23.7866H23.7862H23.7859H23.7855H23.7851H23.7848H23.7844H23.784H23.7837H23.7833H23.7829H23.7826H23.7822H23.7818H23.7815H23.7811H23.7807H23.7804H23.78H23.7796H23.7793H23.7789H23.7785H23.7782H23.7778H23.7774H23.7771H23.7767H23.7763H23.776H23.7756H23.7752H23.7749H23.7745H23.7741H23.7738H23.7734H23.773H23.7727H23.7723H23.7719H23.7716H23.7712H23.7708H23.7705H23.7701H23.7697H23.7694H23.769H23.7686H23.7683H23.7679H23.7675H23.7672H23.7668H23.7664H23.7661H23.7657H23.7653H23.765H23.7646H23.7642H23.7639H23.7635H23.7631H23.7628H23.7624H23.762H23.7617H23.7613H23.7609H23.7606H23.7602H23.7598H23.7595H23.7591H23.7587H23.7584H23.758H23.7576H23.7573H23.7569H23.7565H23.7562H23.7558H23.7554H23.7551H23.7547H23.7543H23.754H23.7536H23.7532H23.7529H23.7525H23.7521H23.752C22.4119 22.8763 21.7437 22.2177 21.3958 21.6557Z" stroke="#888783" stroke-width="0.82148"/>
<path d="M14.2399 22.5415L14.2292 22.5384L14.2184 22.536C12.605 22.168 11.2645 20.8307 10.4313 18.8703C9.60346 16.9223 9.30203 14.4078 9.73739 11.7944C13.3284 11.6438 15.6488 12.7383 16.9585 13.6611L16.9587 13.6612C18.5798 14.802 19.5841 16.3926 19.6971 17.8343L19.6972 17.8353C19.7379 18.3375 19.6292 19.0323 19.342 19.7465C19.0563 20.457 18.6057 21.1575 17.9916 21.6859L17.9916 21.6858L17.9848 21.6919C17.4188 22.2013 16.5739 22.6822 15.348 22.6822C14.9959 22.6822 14.6297 22.6528 14.2399 22.5415Z" stroke="#888783" stroke-width="0.82148"/>
<circle cx="18.958" cy="18.3654" r="13.2191" stroke="#888783" stroke-width="0.82148"/>
<line x1="10.193" y1="8.61506" x2="28.1282" y2="27.8492" stroke="#888783" stroke-width="0.82148"/>
</svg>
